<mxfile host="app.diagrams.net" agent="Mozilla/5.0 (Windows NT 10.0; Win64; x64) AppleWebKit/537.36 (KHTML, like Gecko) Chrome/140.0.0.0 Safari/537.36" version="28.2.1">
  <diagram name="PÃ¡gina-1" id="Q3KTrH_Cg-qdvFPdpqpn">
    <mxGraphModel dx="1148" dy="454" grid="1" gridSize="10" guides="1" tooltips="1" connect="1" arrows="1" fold="1" page="1" pageScale="1" pageWidth="1169" pageHeight="827" math="0" shadow="0">
      <root>
        <mxCell id="0" />
        <mxCell id="1" parent="0" />
        <mxCell id="rQs6UbDkeaH8BetyPs_s-2" value="Eleitor" style="swimlane;fontStyle=1;align=center;verticalAlign=top;childLayout=stackLayout;horizontal=1;startSize=26;horizontalStack=0;resizeParent=1;resizeParentMax=0;resizeLast=0;collapsible=1;marginBottom=0;whiteSpace=wrap;html=1;" parent="1" vertex="1">
          <mxGeometry x="440" y="84" width="200" height="149" as="geometry" />
        </mxCell>
        <mxCell id="rQs6UbDkeaH8BetyPs_s-3" value="+ NumeroDocumentoEleitor: string;&lt;div&gt;+ NomeEleitor: string;&lt;/div&gt;&lt;div&gt;+ FotoEleitor: string | null;&lt;/div&gt;&lt;div&gt;+ JaVotou: boolean&lt;/div&gt;" style="text;strokeColor=none;fillColor=none;align=left;verticalAlign=top;spacingLeft=4;spacingRight=4;overflow=hidden;rotatable=0;points=[[0,0.5],[1,0.5]];portConstraint=eastwest;whiteSpace=wrap;html=1;" parent="rQs6UbDkeaH8BetyPs_s-2" vertex="1">
          <mxGeometry y="26" width="200" height="83" as="geometry" />
        </mxCell>
        <mxCell id="rQs6UbDkeaH8BetyPs_s-4" value="" style="line;strokeWidth=1;fillColor=none;align=left;verticalAlign=middle;spacingTop=-1;spacingLeft=3;spacingRight=3;rotatable=0;labelPosition=right;points=[];portConstraint=eastwest;strokeColor=inherit;" parent="rQs6UbDkeaH8BetyPs_s-2" vertex="1">
          <mxGeometry y="109" width="200" height="8" as="geometry" />
        </mxCell>
        <mxCell id="rQs6UbDkeaH8BetyPs_s-5" value="&lt;div&gt;+ votar()&lt;/div&gt;" style="text;strokeColor=none;fillColor=none;align=left;verticalAlign=top;spacingLeft=4;spacingRight=4;overflow=hidden;rotatable=0;points=[[0,0.5],[1,0.5]];portConstraint=eastwest;whiteSpace=wrap;html=1;" parent="rQs6UbDkeaH8BetyPs_s-2" vertex="1">
          <mxGeometry y="117" width="200" height="32" as="geometry" />
        </mxCell>
        <mxCell id="1HID7VzGxKlwnqKyxGAr-2" value="" style="edgeStyle=orthogonalEdgeStyle;rounded=0;orthogonalLoop=1;jettySize=auto;html=1;entryX=0.504;entryY=1;entryDx=0;entryDy=0;entryPerimeter=0;endArrow=none;endFill=0;" edge="1" parent="1" source="rQs6UbDkeaH8BetyPs_s-6" target="rQs6UbDkeaH8BetyPs_s-25">
          <mxGeometry relative="1" as="geometry" />
        </mxCell>
        <mxCell id="rQs6UbDkeaH8BetyPs_s-6" value="UEv" style="swimlane;fontStyle=1;align=center;verticalAlign=top;childLayout=stackLayout;horizontal=1;startSize=26;horizontalStack=0;resizeParent=1;resizeParentMax=0;resizeLast=0;collapsible=1;marginBottom=0;whiteSpace=wrap;html=1;" parent="1" vertex="1">
          <mxGeometry x="752" y="322" width="240" height="200" as="geometry" />
        </mxCell>
        <mxCell id="rQs6UbDkeaH8BetyPs_s-7" value="+ Id: Guid&lt;div&gt;+ Votos: List&amp;lt;Votos&amp;gt;&lt;br&gt;&lt;div&gt;+ StatusValidacao: EnumStatusValidacao&lt;/div&gt;&lt;/div&gt;&lt;div&gt;+ Candidatos: List&amp;lt;Candidato&amp;gt;&lt;/div&gt;&lt;div&gt;+ Eleitores: List&amp;lt;Eleitor&amp;gt;&lt;/div&gt;" style="text;strokeColor=none;fillColor=none;align=left;verticalAlign=top;spacingLeft=4;spacingRight=4;overflow=hidden;rotatable=0;points=[[0,0.5],[1,0.5]];portConstraint=eastwest;whiteSpace=wrap;html=1;" parent="rQs6UbDkeaH8BetyPs_s-6" vertex="1">
          <mxGeometry y="26" width="240" height="94" as="geometry" />
        </mxCell>
        <mxCell id="rQs6UbDkeaH8BetyPs_s-8" value="" style="line;strokeWidth=1;fillColor=none;align=left;verticalAlign=middle;spacingTop=-1;spacingLeft=3;spacingRight=3;rotatable=0;labelPosition=right;points=[];portConstraint=eastwest;strokeColor=inherit;" parent="rQs6UbDkeaH8BetyPs_s-6" vertex="1">
          <mxGeometry y="120" width="240" height="8" as="geometry" />
        </mxCell>
        <mxCell id="rQs6UbDkeaH8BetyPs_s-9" value="+&amp;nbsp;receberVoto()&lt;div&gt;+ validarCandidato(id)&lt;/div&gt;&lt;div&gt;+ validarDocumento()&lt;/div&gt;&lt;div&gt;+ contabilizarVotos()&lt;/div&gt;" style="text;strokeColor=none;fillColor=none;align=left;verticalAlign=top;spacingLeft=4;spacingRight=4;overflow=hidden;rotatable=0;points=[[0,0.5],[1,0.5]];portConstraint=eastwest;whiteSpace=wrap;html=1;" parent="rQs6UbDkeaH8BetyPs_s-6" vertex="1">
          <mxGeometry y="128" width="240" height="72" as="geometry" />
        </mxCell>
        <mxCell id="rQs6UbDkeaH8BetyPs_s-10" value="" style="rounded=0;orthogonalLoop=1;jettySize=auto;html=1;entryX=1;entryY=0.5;entryDx=0;entryDy=0;endArrow=none;endFill=0;exitX=-0.007;exitY=0.39;exitDx=0;exitDy=0;exitPerimeter=0;" parent="1" source="rQs6UbDkeaH8BetyPs_s-12" target="rQs6UbDkeaH8BetyPs_s-30" edge="1">
          <mxGeometry relative="1" as="geometry">
            <mxPoint x="440" y="348.5526315789473" as="sourcePoint" />
            <mxPoint x="350" y="340.4999999999999" as="targetPoint" />
          </mxGeometry>
        </mxCell>
        <mxCell id="1HID7VzGxKlwnqKyxGAr-5" value="" style="edgeStyle=orthogonalEdgeStyle;rounded=0;orthogonalLoop=1;jettySize=auto;html=1;entryX=0.5;entryY=0;entryDx=0;entryDy=0;endArrow=none;endFill=0;" edge="1" parent="1" source="rQs6UbDkeaH8BetyPs_s-11" target="rQs6UbDkeaH8BetyPs_s-20">
          <mxGeometry relative="1" as="geometry" />
        </mxCell>
        <mxCell id="rQs6UbDkeaH8BetyPs_s-11" value="Voto" style="swimlane;fontStyle=1;align=center;verticalAlign=top;childLayout=stackLayout;horizontal=1;startSize=26;horizontalStack=0;resizeParent=1;resizeParentMax=0;resizeLast=0;collapsible=1;marginBottom=0;whiteSpace=wrap;html=1;" parent="1" vertex="1">
          <mxGeometry x="440" y="281" width="200" height="147" as="geometry" />
        </mxCell>
        <mxCell id="rQs6UbDkeaH8BetyPs_s-12" value="+ Id: Guid&lt;div&gt;+ NumeroDocumentoEleitor:string;&lt;/div&gt;&lt;div&gt;+ IdCandidato: Guid&lt;/div&gt;&lt;div&gt;+ TipoDeVoto: EnumTipoDeVoto&lt;/div&gt;" style="text;strokeColor=none;fillColor=none;align=left;verticalAlign=top;spacingLeft=4;spacingRight=4;overflow=hidden;rotatable=0;points=[[0,0.5],[1,0.5]];portConstraint=eastwest;whiteSpace=wrap;html=1;" parent="rQs6UbDkeaH8BetyPs_s-11" vertex="1">
          <mxGeometry y="26" width="200" height="81" as="geometry" />
        </mxCell>
        <mxCell id="rQs6UbDkeaH8BetyPs_s-13" value="" style="line;strokeWidth=1;fillColor=none;align=left;verticalAlign=middle;spacingTop=-1;spacingLeft=3;spacingRight=3;rotatable=0;labelPosition=right;points=[];portConstraint=eastwest;strokeColor=inherit;" parent="rQs6UbDkeaH8BetyPs_s-11" vertex="1">
          <mxGeometry y="107" width="200" height="8" as="geometry" />
        </mxCell>
        <mxCell id="rQs6UbDkeaH8BetyPs_s-14" value="+ confirmarVoto()" style="text;strokeColor=none;fillColor=none;align=left;verticalAlign=top;spacingLeft=4;spacingRight=4;overflow=hidden;rotatable=0;points=[[0,0.5],[1,0.5]];portConstraint=eastwest;whiteSpace=wrap;html=1;" parent="rQs6UbDkeaH8BetyPs_s-11" vertex="1">
          <mxGeometry y="115" width="200" height="32" as="geometry" />
        </mxCell>
        <mxCell id="rQs6UbDkeaH8BetyPs_s-15" value="" style="endArrow=none;html=1;rounded=0;entryX=0.495;entryY=1;entryDx=0;entryDy=0;entryPerimeter=0;" parent="1" source="rQs6UbDkeaH8BetyPs_s-11" edge="1" target="rQs6UbDkeaH8BetyPs_s-5">
          <mxGeometry width="50" height="50" relative="1" as="geometry">
            <mxPoint x="530" y="374" as="sourcePoint" />
            <mxPoint x="540" y="264" as="targetPoint" />
          </mxGeometry>
        </mxCell>
        <mxCell id="rQs6UbDkeaH8BetyPs_s-16" value="suporta" style="text;html=1;align=center;verticalAlign=middle;resizable=0;points=[];autosize=1;strokeColor=none;fillColor=none;" parent="1" vertex="1">
          <mxGeometry x="869" y="281" width="60" height="30" as="geometry" />
        </mxCell>
        <mxCell id="rQs6UbDkeaH8BetyPs_s-18" value="recebe" style="text;html=1;align=center;verticalAlign=middle;resizable=0;points=[];autosize=1;strokeColor=none;fillColor=none;" parent="1" vertex="1">
          <mxGeometry x="670" y="339" width="60" height="30" as="geometry" />
        </mxCell>
        <mxCell id="rQs6UbDkeaH8BetyPs_s-20" value="&lt;span style=&quot;font-weight: 700;&quot;&gt;EnumTipoDeVoto&lt;/span&gt;" style="swimlane;fontStyle=0;childLayout=stackLayout;horizontal=1;startSize=26;fillColor=none;horizontalStack=0;resizeParent=1;resizeParentMax=0;resizeLast=0;collapsible=1;marginBottom=0;whiteSpace=wrap;html=1;" parent="1" vertex="1">
          <mxGeometry x="470" y="480" width="140" height="80" as="geometry" />
        </mxCell>
        <mxCell id="rQs6UbDkeaH8BetyPs_s-21" value="&lt;div&gt;- Valido&lt;/div&gt;- Branco&lt;div&gt;- Nulo&lt;/div&gt;" style="text;strokeColor=none;fillColor=none;align=left;verticalAlign=top;spacingLeft=4;spacingRight=4;overflow=hidden;rotatable=0;points=[[0,0.5],[1,0.5]];portConstraint=eastwest;whiteSpace=wrap;html=1;" parent="rQs6UbDkeaH8BetyPs_s-20" vertex="1">
          <mxGeometry y="26" width="140" height="54" as="geometry" />
        </mxCell>
        <mxCell id="rQs6UbDkeaH8BetyPs_s-22" value="UEg" style="swimlane;fontStyle=1;align=center;verticalAlign=top;childLayout=stackLayout;horizontal=1;startSize=26;horizontalStack=0;resizeParent=1;resizeParentMax=0;resizeLast=0;collapsible=1;marginBottom=0;whiteSpace=wrap;html=1;" parent="1" vertex="1">
          <mxGeometry x="751" y="84" width="240" height="180" as="geometry" />
        </mxCell>
        <mxCell id="rQs6UbDkeaH8BetyPs_s-23" value="&lt;div&gt;+ Id: Guid&lt;div&gt;+ UEv: List&amp;lt;UEv&amp;gt;&lt;br&gt;&lt;div&gt;+ StatusValidacao: EnumStatusValidacao&lt;/div&gt;&lt;/div&gt;&lt;/div&gt;" style="text;strokeColor=none;fillColor=none;align=left;verticalAlign=top;spacingLeft=4;spacingRight=4;overflow=hidden;rotatable=0;points=[[0,0.5],[1,0.5]];portConstraint=eastwest;whiteSpace=wrap;html=1;" parent="rQs6UbDkeaH8BetyPs_s-22" vertex="1">
          <mxGeometry y="26" width="240" height="74" as="geometry" />
        </mxCell>
        <mxCell id="rQs6UbDkeaH8BetyPs_s-24" value="" style="line;strokeWidth=1;fillColor=none;align=left;verticalAlign=middle;spacingTop=-1;spacingLeft=3;spacingRight=3;rotatable=0;labelPosition=right;points=[];portConstraint=eastwest;strokeColor=inherit;" parent="rQs6UbDkeaH8BetyPs_s-22" vertex="1">
          <mxGeometry y="100" width="240" height="8" as="geometry" />
        </mxCell>
        <mxCell id="rQs6UbDkeaH8BetyPs_s-25" value="+ validarUEv()&lt;div&gt;+&amp;nbsp;consolidarResultados()&lt;/div&gt;&lt;div&gt;+ criarUEv()&lt;/div&gt;&lt;div&gt;+ verificarUEv(id)&lt;/div&gt;" style="text;strokeColor=none;fillColor=none;align=left;verticalAlign=top;spacingLeft=4;spacingRight=4;overflow=hidden;rotatable=0;points=[[0,0.5],[1,0.5]];portConstraint=eastwest;whiteSpace=wrap;html=1;" parent="rQs6UbDkeaH8BetyPs_s-22" vertex="1">
          <mxGeometry y="108" width="240" height="72" as="geometry" />
        </mxCell>
        <mxCell id="rQs6UbDkeaH8BetyPs_s-27" value="emite" style="text;html=1;align=center;verticalAlign=middle;resizable=0;points=[];autosize=1;strokeColor=none;fillColor=none;" parent="1" vertex="1">
          <mxGeometry x="536" y="244" width="50" height="30" as="geometry" />
        </mxCell>
        <mxCell id="rQs6UbDkeaH8BetyPs_s-28" value="destina" style="text;html=1;align=center;verticalAlign=middle;resizable=0;points=[];autosize=1;strokeColor=none;fillColor=none;" parent="1" vertex="1">
          <mxGeometry x="370" y="312" width="60" height="30" as="geometry" />
        </mxCell>
        <mxCell id="rQs6UbDkeaH8BetyPs_s-29" value="Candidato" style="swimlane;fontStyle=1;align=center;verticalAlign=top;childLayout=stackLayout;horizontal=1;startSize=26;horizontalStack=0;resizeParent=1;resizeParentMax=0;resizeLast=0;collapsible=1;marginBottom=0;whiteSpace=wrap;html=1;" parent="1" vertex="1">
          <mxGeometry x="150" y="258" width="200" height="170" as="geometry" />
        </mxCell>
        <mxCell id="rQs6UbDkeaH8BetyPs_s-30" value="+ Id: Guid&lt;div&gt;+ Cargo&lt;span style=&quot;background-color: transparent; color: light-dark(rgb(0, 0, 0), rgb(255, 255, 255));&quot;&gt;Candidato&lt;/span&gt;&lt;span style=&quot;background-color: transparent; color: light-dark(rgb(0, 0, 0), rgb(255, 255, 255));&quot;&gt;: string&lt;/span&gt;&lt;/div&gt;&lt;div&gt;+ Nome&lt;span style=&quot;background-color: transparent; color: light-dark(rgb(0, 0, 0), rgb(255, 255, 255));&quot;&gt;Candidato&lt;/span&gt;&lt;span style=&quot;background-color: transparent; color: light-dark(rgb(0, 0, 0), rgb(255, 255, 255));&quot;&gt;: string&lt;/span&gt;&lt;/div&gt;&lt;div&gt;+ Apelido&lt;span style=&quot;background-color: transparent; color: light-dark(rgb(0, 0, 0), rgb(255, 255, 255));&quot;&gt;Candidato&lt;/span&gt;&lt;span style=&quot;background-color: transparent; color: light-dark(rgb(0, 0, 0), rgb(255, 255, 255));&quot;&gt;: string&lt;/span&gt;&lt;/div&gt;&lt;div&gt;+ Numero&lt;span style=&quot;background-color: transparent; color: light-dark(rgb(0, 0, 0), rgb(255, 255, 255));&quot;&gt;Candidato&lt;/span&gt;&lt;span style=&quot;background-color: transparent; color: light-dark(rgb(0, 0, 0), rgb(255, 255, 255));&quot;&gt;: int&lt;/span&gt;&lt;/div&gt;&lt;div&gt;+ FotoCandidato: string&lt;/div&gt;" style="text;strokeColor=none;fillColor=none;align=left;verticalAlign=top;spacingLeft=4;spacingRight=4;overflow=hidden;rotatable=0;points=[[0,0.5],[1,0.5]];portConstraint=eastwest;whiteSpace=wrap;html=1;" parent="rQs6UbDkeaH8BetyPs_s-29" vertex="1">
          <mxGeometry y="26" width="200" height="107" as="geometry" />
        </mxCell>
        <mxCell id="rQs6UbDkeaH8BetyPs_s-31" value="" style="line;strokeWidth=1;fillColor=none;align=left;verticalAlign=middle;spacingTop=-1;spacingLeft=3;spacingRight=3;rotatable=0;labelPosition=right;points=[];portConstraint=eastwest;strokeColor=inherit;" parent="rQs6UbDkeaH8BetyPs_s-29" vertex="1">
          <mxGeometry y="133" width="200" height="8" as="geometry" />
        </mxCell>
        <mxCell id="rQs6UbDkeaH8BetyPs_s-32" value="+ exibirDados()" style="text;strokeColor=none;fillColor=none;align=left;verticalAlign=top;spacingLeft=4;spacingRight=4;overflow=hidden;rotatable=0;points=[[0,0.5],[1,0.5]];portConstraint=eastwest;whiteSpace=wrap;html=1;" parent="rQs6UbDkeaH8BetyPs_s-29" vertex="1">
          <mxGeometry y="141" width="200" height="29" as="geometry" />
        </mxCell>
        <mxCell id="1HID7VzGxKlwnqKyxGAr-3" style="rounded=0;orthogonalLoop=1;jettySize=auto;html=1;exitX=1.005;exitY=0.716;exitDx=0;exitDy=0;exitPerimeter=0;endArrow=none;endFill=0;entryX=0.004;entryY=0.181;entryDx=0;entryDy=0;entryPerimeter=0;" edge="1" parent="1">
          <mxGeometry relative="1" as="geometry">
            <mxPoint x="640" y="364.996" as="sourcePoint" />
            <mxPoint x="751.96" y="365.014" as="targetPoint" />
          </mxGeometry>
        </mxCell>
      </root>
    </mxGraphModel>
  </diagram>
</mxfile>
